<?xml version="1.0" encoding="UTF-8" standalone="no"?>
<!-- Created with Inkscape (http://www.inkscape.org/) -->

<svg
   xmlns:dc="http://purl.org/dc/elements/1.1/"
   xmlns:cc="http://creativecommons.org/ns#"
   xmlns:rdf="http://www.w3.org/1999/02/22-rdf-syntax-ns#"
   xmlns:svg="http://www.w3.org/2000/svg"
   xmlns="http://www.w3.org/2000/svg"
   xmlns:sodipodi="http://sodipodi.sourceforge.net/DTD/sodipodi-0.dtd"
   xmlns:inkscape="http://www.inkscape.org/namespaces/inkscape"
   width="79.784714mm"
   height="34.271656mm"
   viewBox="0 0 79.784714 34.271656"
   version="1.1"
   id="svg8"
   inkscape:version="0.92.4 (5da689c313, 2019-01-14)"
   sodipodi:docname="buzzard.svg">
  <defs
     id="defs2" />
  <sodipodi:namedview
     id="base"
     pagecolor="#ffffff"
     bordercolor="#666666"
     borderopacity="1.0"
     inkscape:pageopacity="0.0"
     inkscape:pageshadow="2"
     inkscape:zoom="0.98994949"
     inkscape:cx="-10.091525"
     inkscape:cy="-106.81283"
     inkscape:document-units="mm"
     inkscape:current-layer="layer1"
     showgrid="false"
     fit-margin-top="0"
     fit-margin-left="0"
     fit-margin-right="0"
     fit-margin-bottom="0"
     inkscape:window-width="2498"
     inkscape:window-height="1417"
     inkscape:window-x="1254"
     inkscape:window-y="208"
     inkscape:window-maximized="1" />
  <metadata
     id="metadata5">
    <rdf:RDF>
      <cc:Work
         rdf:about="">
        <dc:format>image/svg+xml</dc:format>
        <dc:type
           rdf:resource="http://purl.org/dc/dcmitype/StillImage" />
        <dc:title></dc:title>
      </cc:Work>
    </rdf:RDF>
  </metadata>
  <g
     inkscape:label="Layer 1"
     inkscape:groupmode="layer"
     id="layer1"
     transform="translate(-62.306605,-62.667707)">
    <g
       transform="translate(24.879436,-18.055431)"
       id="layer1-3"
       inkscape:label="Layer 1">
      <circle
         r="15.641744"
         cy="98.85305"
         cx="77.274307"
         id="path857"
         style="opacity:1;fill:none;fill-opacity:0.45321637;stroke:#000000;stroke-width:1;stroke-miterlimit:4;stroke-dasharray:none;stroke-opacity:1" />
      <circle
         r="0.70993471"
         cy="101.79301"
         cx="66.040627"
         id="path859"
         style="opacity:1;fill:#000000;fill-opacity:1;stroke:#000000;stroke-width:0.26458332;stroke-opacity:1" />
      <circle
         r="0.70993471"
         cy="100.35197"
         cx="68.579048"
         id="path859-6"
         style="opacity:1;fill:#000000;fill-opacity:1;stroke:#000000;stroke-width:0.26458332;stroke-opacity:1" />
      <circle
         r="0.70993471"
         cy="99.00563"
         cx="70.910271"
         id="path859-3"
         style="opacity:1;fill:#000000;fill-opacity:1;stroke:#000000;stroke-width:0.26458332;stroke-opacity:1" />
      <circle
         r="0.70993471"
         cy="97.56459"
         cx="73.448692"
         id="path859-6-3"
         style="opacity:1;fill:#000000;fill-opacity:1;stroke:#000000;stroke-width:0.26458332;stroke-opacity:1" />
      <circle
         r="0.70993471"
         cy="96.231583"
         cx="75.733475"
         id="path859-2"
         style="opacity:1;fill:#000000;fill-opacity:1;stroke:#000000;stroke-width:0.26458332;stroke-opacity:1" />
      <circle
         r="0.70993471"
         cy="94.790543"
         cx="78.271896"
         id="path859-6-4"
         style="opacity:1;fill:#000000;fill-opacity:1;stroke:#000000;stroke-width:0.26458332;stroke-opacity:1" />
      <circle
         r="0.70993471"
         cy="93.444206"
         cx="80.603119"
         id="path859-3-5"
         style="opacity:1;fill:#000000;fill-opacity:1;stroke:#000000;stroke-width:0.26458332;stroke-opacity:1" />
      <circle
         r="0.70993471"
         cy="92.003166"
         cx="83.141541"
         id="path859-6-3-3"
         style="opacity:1;fill:#000000;fill-opacity:1;stroke:#000000;stroke-width:0.26458332;stroke-opacity:1" />
      <circle
         r="0.70993471"
         cy="90.57605"
         cx="85.659882"
         id="path859-6-3-3-4"
         style="opacity:1;fill:#000000;fill-opacity:1;stroke:#000000;stroke-width:0.26458332;stroke-opacity:1" />
      <circle
         r="0.70993471"
         cy="104.59517"
         cx="67.61084"
         id="path859-8"
         style="opacity:1;fill:#000000;fill-opacity:1;stroke:#000000;stroke-width:0.26458332;stroke-opacity:1" />
      <circle
         r="0.70993471"
         cy="103.15413"
         cx="70.149261"
         id="path859-6-6"
         style="opacity:1;fill:#000000;fill-opacity:1;stroke:#000000;stroke-width:0.26458332;stroke-opacity:1" />
      <circle
         r="0.70993471"
         cy="101.80779"
         cx="72.480484"
         id="path859-3-3"
         style="opacity:1;fill:#000000;fill-opacity:1;stroke:#000000;stroke-width:0.26458332;stroke-opacity:1" />
      <circle
         r="0.70993471"
         cy="100.36675"
         cx="75.018906"
         id="path859-6-3-1"
         style="opacity:1;fill:#000000;fill-opacity:1;stroke:#000000;stroke-width:0.26458332;stroke-opacity:1" />
      <circle
         r="0.70993471"
         cy="99.033737"
         cx="77.303688"
         id="path859-2-6"
         style="opacity:1;fill:#000000;fill-opacity:1;stroke:#000000;stroke-width:0.26458332;stroke-opacity:1" />
      <circle
         r="0.70993471"
         cy="97.592697"
         cx="79.84211"
         id="path859-6-4-2"
         style="opacity:1;fill:#000000;fill-opacity:1;stroke:#000000;stroke-width:0.26458332;stroke-opacity:1" />
      <circle
         r="0.70993471"
         cy="96.246353"
         cx="82.173332"
         id="path859-3-5-2"
         style="opacity:1;fill:#000000;fill-opacity:1;stroke:#000000;stroke-width:0.26458332;stroke-opacity:1" />
      <circle
         r="0.70993471"
         cy="94.805321"
         cx="84.711754"
         id="path859-6-3-3-5"
         style="opacity:1;fill:#000000;fill-opacity:1;stroke:#000000;stroke-width:0.26458332;stroke-opacity:1" />
      <circle
         r="0.70993471"
         cy="93.378204"
         cx="87.230095"
         id="path859-6-3-3-4-1"
         style="opacity:1;fill:#000000;fill-opacity:1;stroke:#000000;stroke-width:0.26458332;stroke-opacity:1" />
      <circle
         r="0.70993471"
         cy="107.16163"
         cx="69.134537"
         id="path859-0"
         style="opacity:1;fill:#000000;fill-opacity:1;stroke:#000000;stroke-width:0.26458332;stroke-opacity:1" />
      <circle
         r="0.70993471"
         cy="105.72058"
         cx="71.672958"
         id="path859-6-0"
         style="opacity:1;fill:#000000;fill-opacity:1;stroke:#000000;stroke-width:0.26458332;stroke-opacity:1" />
      <circle
         r="0.70993471"
         cy="104.37424"
         cx="74.004181"
         id="path859-3-9"
         style="opacity:1;fill:#000000;fill-opacity:1;stroke:#000000;stroke-width:0.26458332;stroke-opacity:1" />
      <circle
         r="0.70993471"
         cy="102.93321"
         cx="76.542603"
         id="path859-6-3-2"
         style="opacity:1;fill:#000000;fill-opacity:1;stroke:#000000;stroke-width:0.26458332;stroke-opacity:1" />
      <circle
         r="0.70993471"
         cy="101.6002"
         cx="78.827385"
         id="path859-2-1"
         style="opacity:1;fill:#000000;fill-opacity:1;stroke:#000000;stroke-width:0.26458332;stroke-opacity:1" />
      <circle
         r="0.70993471"
         cy="100.15916"
         cx="81.365807"
         id="path859-6-4-1"
         style="opacity:1;fill:#000000;fill-opacity:1;stroke:#000000;stroke-width:0.26458332;stroke-opacity:1" />
      <circle
         r="0.70993471"
         cy="98.81282"
         cx="83.697029"
         id="path859-3-5-4"
         style="opacity:1;fill:#000000;fill-opacity:1;stroke:#000000;stroke-width:0.26458332;stroke-opacity:1" />
      <circle
         r="0.70993471"
         cy="97.37178"
         cx="86.235451"
         id="path859-6-3-3-6"
         style="opacity:1;fill:#000000;fill-opacity:1;stroke:#000000;stroke-width:0.26458332;stroke-opacity:1" />
      <circle
         r="0.70993471"
         cy="95.944664"
         cx="88.753792"
         id="path859-6-3-3-4-6"
         style="opacity:1;fill:#000000;fill-opacity:1;stroke:#000000;stroke-width:0.26458332;stroke-opacity:1" />
      <circle
         r="0.70993471"
         cy="108.14014"
         cx="73.012764"
         id="path859-06"
         style="opacity:1;fill:#000000;fill-opacity:1;stroke:#000000;stroke-width:0.26458332;stroke-opacity:1" />
      <circle
         r="0.70993471"
         cy="106.69909"
         cx="75.551186"
         id="path859-6-8"
         style="opacity:1;fill:#000000;fill-opacity:1;stroke:#000000;stroke-width:0.26458332;stroke-opacity:1" />
      <circle
         r="0.70993471"
         cy="105.35275"
         cx="77.882408"
         id="path859-3-35"
         style="opacity:1;fill:#000000;fill-opacity:1;stroke:#000000;stroke-width:0.26458332;stroke-opacity:1" />
      <circle
         r="0.70993471"
         cy="103.91171"
         cx="80.42083"
         id="path859-6-3-0"
         style="opacity:1;fill:#000000;fill-opacity:1;stroke:#000000;stroke-width:0.26458332;stroke-opacity:1" />
      <circle
         r="0.70993471"
         cy="102.57871"
         cx="82.705612"
         id="path859-2-2"
         style="opacity:1;fill:#000000;fill-opacity:1;stroke:#000000;stroke-width:0.26458332;stroke-opacity:1" />
      <circle
         r="0.70993471"
         cy="101.13767"
         cx="85.244034"
         id="path859-6-4-8"
         style="opacity:1;fill:#000000;fill-opacity:1;stroke:#000000;stroke-width:0.26458332;stroke-opacity:1" />
      <circle
         r="0.70993471"
         cy="99.791336"
         cx="87.575256"
         id="path859-3-5-9"
         style="opacity:1;fill:#000000;fill-opacity:1;stroke:#000000;stroke-width:0.26458332;stroke-opacity:1" />
      <circle
         r="0.70993471"
         cy="110.9423"
         cx="74.582977"
         id="path859-8-3"
         style="opacity:1;fill:#000000;fill-opacity:1;stroke:#000000;stroke-width:0.26458332;stroke-opacity:1" />
      <circle
         r="0.70993471"
         cy="109.50126"
         cx="77.121399"
         id="path859-6-6-3"
         style="opacity:1;fill:#000000;fill-opacity:1;stroke:#000000;stroke-width:0.26458332;stroke-opacity:1" />
      <circle
         r="0.70993471"
         cy="108.15492"
         cx="79.452621"
         id="path859-3-3-8"
         style="opacity:1;fill:#000000;fill-opacity:1;stroke:#000000;stroke-width:0.26458332;stroke-opacity:1" />
      <circle
         r="0.70993471"
         cy="106.71388"
         cx="81.991043"
         id="path859-6-3-1-8"
         style="opacity:1;fill:#000000;fill-opacity:1;stroke:#000000;stroke-width:0.26458332;stroke-opacity:1" />
      <circle
         r="0.70993471"
         cy="105.38086"
         cx="84.275826"
         id="path859-2-6-5"
         style="opacity:1;fill:#000000;fill-opacity:1;stroke:#000000;stroke-width:0.26458332;stroke-opacity:1" />
      <circle
         r="0.70993471"
         cy="103.93982"
         cx="86.814247"
         id="path859-6-4-2-9"
         style="opacity:1;fill:#000000;fill-opacity:1;stroke:#000000;stroke-width:0.26458332;stroke-opacity:1" />
      <circle
         r="0.70993471"
         cy="102.59348"
         cx="89.14547"
         id="path859-3-5-2-3"
         style="opacity:1;fill:#000000;fill-opacity:1;stroke:#000000;stroke-width:0.26458332;stroke-opacity:1" />
      <circle
         r="0.70993471"
         cy="110.72136"
         cx="80.976318"
         id="path859-3-9-6"
         style="opacity:1;fill:#000000;fill-opacity:1;stroke:#000000;stroke-width:0.26458332;stroke-opacity:1" />
      <circle
         r="0.70993471"
         cy="109.28034"
         cx="83.51474"
         id="path859-6-3-2-3"
         style="opacity:1;fill:#000000;fill-opacity:1;stroke:#000000;stroke-width:0.26458332;stroke-opacity:1" />
      <circle
         r="0.70993471"
         cy="107.94732"
         cx="85.799522"
         id="path859-2-1-7"
         style="opacity:1;fill:#000000;fill-opacity:1;stroke:#000000;stroke-width:0.26458332;stroke-opacity:1" />
      <circle
         r="0.70993471"
         cy="89.769608"
         cx="69.06105"
         id="path859-3-8"
         style="opacity:1;fill:#000000;fill-opacity:1;stroke:#000000;stroke-width:0.26458332;stroke-opacity:1" />
      <circle
         r="0.70993471"
         cy="88.328568"
         cx="71.599472"
         id="path859-6-3-8"
         style="opacity:1;fill:#000000;fill-opacity:1;stroke:#000000;stroke-width:0.26458332;stroke-opacity:1" />
      <circle
         r="0.70993471"
         cy="86.99556"
         cx="73.884262"
         id="path859-2-3"
         style="opacity:1;fill:#000000;fill-opacity:1;stroke:#000000;stroke-width:0.26458332;stroke-opacity:1" />
      <circle
         r="0.70993471"
         cy="95.359146"
         cx="65.76162"
         id="path859-8-7"
         style="opacity:1;fill:#000000;fill-opacity:1;stroke:#000000;stroke-width:0.26458332;stroke-opacity:1" />
      <circle
         r="0.70993471"
         cy="93.918106"
         cx="68.300041"
         id="path859-6-6-8"
         style="opacity:1;fill:#000000;fill-opacity:1;stroke:#000000;stroke-width:0.26458332;stroke-opacity:1" />
      <circle
         r="0.70993471"
         cy="92.57177"
         cx="70.631264"
         id="path859-3-3-0"
         style="opacity:1;fill:#000000;fill-opacity:1;stroke:#000000;stroke-width:0.26458332;stroke-opacity:1" />
      <circle
         r="0.70993471"
         cy="91.13073"
         cx="73.169685"
         id="path859-6-3-1-4"
         style="opacity:1;fill:#000000;fill-opacity:1;stroke:#000000;stroke-width:0.26458332;stroke-opacity:1" />
      <circle
         r="0.70993471"
         cy="89.797714"
         cx="75.454475"
         id="path859-2-6-6"
         style="opacity:1;fill:#000000;fill-opacity:1;stroke:#000000;stroke-width:0.26458332;stroke-opacity:1" />
      <circle
         r="0.70993471"
         cy="88.356674"
         cx="77.992897"
         id="path859-6-4-2-6"
         style="opacity:1;fill:#000000;fill-opacity:1;stroke:#000000;stroke-width:0.26458332;stroke-opacity:1" />
      <circle
         r="0.70993471"
         cy="87.01033"
         cx="80.32412"
         id="path859-3-5-2-8"
         style="opacity:1;fill:#000000;fill-opacity:1;stroke:#000000;stroke-width:0.26458332;stroke-opacity:1" />
      <circle
         r="0.70993471"
         cy="97.925606"
         cx="67.285316"
         id="path859-0-6"
         style="opacity:1;fill:#000000;fill-opacity:1;stroke:#000000;stroke-width:0.26458332;stroke-opacity:1" />
      <circle
         r="0.70993471"
         cy="96.484558"
         cx="69.823738"
         id="path859-6-0-3"
         style="opacity:1;fill:#000000;fill-opacity:1;stroke:#000000;stroke-width:0.26458332;stroke-opacity:1" />
      <circle
         r="0.70993471"
         cy="95.138214"
         cx="72.154968"
         id="path859-3-9-0"
         style="opacity:1;fill:#000000;fill-opacity:1;stroke:#000000;stroke-width:0.26458332;stroke-opacity:1" />
      <circle
         r="0.70993471"
         cy="93.697189"
         cx="74.69339"
         id="path859-6-3-2-8"
         style="opacity:1;fill:#000000;fill-opacity:1;stroke:#000000;stroke-width:0.26458332;stroke-opacity:1" />
      <circle
         r="0.70993471"
         cy="92.364174"
         cx="76.978172"
         id="path859-2-1-5"
         style="opacity:1;fill:#000000;fill-opacity:1;stroke:#000000;stroke-width:0.26458332;stroke-opacity:1" />
      <circle
         r="0.70993471"
         cy="90.923134"
         cx="79.516594"
         id="path859-6-4-1-9"
         style="opacity:1;fill:#000000;fill-opacity:1;stroke:#000000;stroke-width:0.26458332;stroke-opacity:1" />
      <circle
         r="0.70993471"
         cy="89.576797"
         cx="81.847816"
         id="path859-3-5-4-9"
         style="opacity:1;fill:#000000;fill-opacity:1;stroke:#000000;stroke-width:0.26458332;stroke-opacity:1" />
    </g>
    <path
       style="fill:#000000;stroke-width:0.16860653"
       d="m 81.68675,94.021888 c 0.06818,-0.139605 0.52609,-2.404339 1.017533,-5.032766 0.999037,-5.343261 0.856407,-5.00445 2.140682,-5.085018 l 0.718196,-0.04505 0.474573,1.38131 c 0.75031,2.183876 0.668279,2.561476 -1.219625,5.614198 -0.639212,1.033597 -1.397843,2.015563 -1.983493,2.567399 -0.92035,0.867238 -1.401304,1.118593 -1.147897,0.599922 z m -4.010609,-2.657515 c 0.03659,-0.179056 0.572619,-1.672816 1.191203,-3.319466 1.293676,-3.443717 1.37456,-3.543644 2.96634,-3.664718 0.538954,-0.041 0.996034,-0.04658 1.015732,-0.0124 0.01969,0.03415 -0.162145,0.705116 -0.404092,1.490995 -0.792701,2.574768 -2.405844,4.87869 -3.907207,5.580353 -0.765583,0.357794 -0.947121,0.342047 -0.861972,-0.07478 z m -2.658507,-2.807461 c 0.194493,-0.369367 0.442795,-0.850466 0.551788,-1.0691 0.686742,-1.377682 1.729175,-2.2412 3.02764,-2.508 0.73661,-0.151355 0.727382,0.04131 -0.06731,1.405277 -0.874754,1.501365 -2.748172,2.981308 -3.635367,2.871834 -0.206336,-0.02546 -0.193473,-0.0985 0.123299,-0.700005 z M 73.76638,84.067835 c -1.472942,-0.615537 -4.385149,-2.762944 -5.086983,-3.751049 l -0.308813,-0.434775 0.447148,0.05525 c 0.245932,0.03039 3.912651,0.291803 8.148262,0.580926 7.623491,0.52038 7.703736,0.529734 7.961135,0.927817 0.341418,0.528017 0.564937,1.497339 0.3797,1.646623 -0.188564,0.151969 -10.00145,1.463071 -10.391699,1.388433 -0.162186,-0.03104 -0.67913,-0.216958 -1.148751,-0.413216 z m -2.512514,-5.53831 c -1.099834,-0.624455 -2.456761,-1.830236 -3.808311,-3.384113 -1.234184,-1.418943 -2.785772,-3.548144 -2.761153,-3.789058 0.02209,-0.216157 -0.05656,-0.237669 9.697129,2.652047 6.616992,1.960406 10.709658,3.439054 10.941708,3.692576 0.272335,0.297533 -0.293384,2.115962 -0.426404,2.240697 -0.04814,0.04516 -11.862554,-0.825235 -12.495444,-0.920306 -0.210338,-0.03159 -0.726722,-0.252922 -1.147522,-0.491844 z m 4.307613,-5.324898 c -6.5845,-1.940819 -7.158941,-2.140906 -7.964642,-2.774198 -1.123241,-0.882885 -1.54539,-2.110658 -2.886749,-3.91964 -1.140253,-1.537771 -2.539887,-3.70439 -2.392788,-3.842329 0.08838,-0.08288 18.135584,7.927507 19.427424,8.666091 0.825022,0.471692 4.088442,1.514596 4.538915,3.09418 0.195449,0.685355 -0.649476,2.398225 -0.649476,2.398225 -0.03059,0.186378 -3.291786,-1.623613 -10.072684,-3.622329 z"
       id="path4659"
       inkscape:connector-curvature="0"
       sodipodi:nodetypes="cscccsccccccscccccssscccccssccccccscsccccsscccssscc" />
    <path
       style="fill:#000000;stroke-width:0.16860653"
       d="m 122.71117,94.021774 c -0.0682,-0.139605 -0.52609,-2.40434 -1.01753,-5.032766 -0.99904,-5.343261 -0.85641,-5.00445 -2.14069,-5.085018 l -0.71819,-0.04505 -0.47458,1.38131 c -0.75031,2.183876 -0.66827,2.561476 1.21963,5.614197 0.63921,1.033597 1.39784,2.015564 1.98349,2.5674 0.92035,0.867238 1.40131,1.118592 1.1479,0.599922 z m 4.01061,-2.657515 c -0.0366,-0.179057 -0.57262,-1.672817 -1.19121,-3.319466 -1.29367,-3.443717 -1.37456,-3.543644 -2.96634,-3.664718 -0.53895,-0.041 -0.99603,-0.04658 -1.01573,-0.0124 -0.0197,0.03415 0.16215,0.705116 0.40409,1.490995 0.79271,2.574768 2.40585,4.878692 3.90721,5.580354 0.76558,0.357793 0.94712,0.342048 0.86197,-0.07478 z m 2.6585,-2.807461 c -0.19449,-0.369367 -0.44279,-0.850466 -0.55178,-1.0691 -0.68675,-1.377682 -1.72918,-2.2412 -3.02764,-2.508 -0.73661,-0.151355 -0.72739,0.04131 0.0673,1.405277 0.87475,1.501365 2.74817,2.981307 3.63536,2.871833 0.20634,-0.02545 0.19348,-0.0985 -0.1233,-0.700004 z m 1.25126,-4.489077 c 1.47294,-0.615537 4.38515,-2.762944 5.08698,-3.751049 l 0.30881,-0.434775 -0.44714,0.05525 c -0.24594,0.03039 -3.91265,0.291803 -8.14827,0.580926 -7.62349,0.52038 -7.70373,0.529734 -7.96113,0.927817 -0.34142,0.528017 -0.56494,1.497339 -0.3797,1.646623 0.18856,0.151969 10.00145,1.463071 10.3917,1.388433 0.16218,-0.03104 0.67913,-0.216958 1.14875,-0.413216 z m 2.51251,-5.53831 c 1.09984,-0.624455 2.45676,-1.830236 3.80831,-3.384113 1.23419,-1.418943 2.78578,-3.548144 2.76116,-3.789058 -0.0221,-0.216157 0.0566,-0.237669 -9.69713,2.652047 -6.61699,1.960406 -10.70966,3.439054 -10.94171,3.692576 -0.27234,0.297533 0.29338,2.115962 0.4264,2.240697 0.0481,0.04516 11.86256,-0.825235 12.49545,-0.920306 0.21034,-0.03159 0.72672,-0.252922 1.14752,-0.491843 z m -4.30761,-5.324898 c 6.5845,-1.940819 7.15894,-2.140906 7.96464,-2.774198 1.12324,-0.882885 1.54539,-2.110658 2.88675,-3.91964 1.14025,-1.537771 2.53989,-3.70439 2.39279,-3.842329 -0.0884,-0.08288 -18.13559,7.927507 -19.42743,8.666091 -0.82502,0.471692 -4.08844,1.514596 -4.53891,3.09418 -0.19545,0.685355 0.64948,2.398225 0.64948,2.398225 0.0306,0.186378 3.29178,-1.623613 10.07268,-3.622329 z"
       id="path4659-9"
       inkscape:connector-curvature="0"
       sodipodi:nodetypes="cscccsccccccscccccssscccccssccccccscsccccsscccssscc" />
  </g>
</svg>
